<svg width="22" height="18" viewBox="0 0 22 18" fill="none" xmlns="http://www.w3.org/2000/svg">
<path d="M18.3616 1.85248C17.0527 1.20197 15.6355 0.729825 14.1593 0.457031C14.1333 0.457425 14.1086 0.468739 14.0904 0.488508C13.9132 0.834746 13.7066 1.28591 13.5688 1.63214C12.003 1.38049 10.4106 1.38049 8.84484 1.63214C8.70706 1.27541 8.50039 0.834746 8.3134 0.488508C8.30356 0.467524 8.27403 0.457031 8.24451 0.457031C6.76828 0.729825 5.36093 1.20197 4.04217 1.85248C4.03233 1.85248 4.02249 1.86297 4.01264 1.87346C1.33575 6.14374 0.59763 10.2986 0.961767 14.4115C0.961767 14.4325 0.971609 14.4535 0.991292 14.464C2.76277 15.8489 4.46535 16.6883 6.14826 17.2444C6.17778 17.2548 6.20731 17.2444 6.21715 17.2234C6.61081 16.6463 6.96511 16.0378 7.27019 15.3977C7.28988 15.3558 7.27019 15.3138 7.23083 15.3033C6.66986 15.0725 6.13842 14.7997 5.61682 14.4849C5.57745 14.464 5.57745 14.401 5.60697 14.3695C5.71523 14.2856 5.82349 14.1912 5.93174 14.1072C5.95143 14.0862 5.98095 14.0862 6.00064 14.0967C9.38612 15.744 13.0373 15.744 16.3835 14.0967C16.4031 14.0862 16.4327 14.0862 16.4523 14.1072C16.5606 14.2016 16.6689 14.2856 16.7771 14.38C16.8165 14.4115 16.8165 14.4744 16.7673 14.4954C16.2555 14.8207 15.7142 15.083 15.1533 15.3138C15.1139 15.3243 15.1041 15.3768 15.1139 15.4082C15.4288 16.0483 15.7831 16.6568 16.1669 17.2339C16.1965 17.2444 16.226 17.2548 16.2555 17.2444C17.9483 16.6883 19.6508 15.8489 21.4223 14.464C21.442 14.4535 21.4519 14.4325 21.4519 14.4115C21.8849 9.65858 20.7334 5.5352 18.401 1.87346C18.3911 1.86297 18.3813 1.85248 18.3616 1.85248ZM7.78195 11.9039C6.76828 11.9039 5.9219 10.9071 5.9219 9.67956C5.9219 8.45199 6.74859 7.45525 7.78195 7.45525C8.82516 7.45525 9.65185 8.46248 9.642 9.67956C9.642 10.9071 8.81532 11.9039 7.78195 11.9039ZM14.6415 11.9039C13.6278 11.9039 12.7815 10.9071 12.7815 9.67956C12.7815 8.45199 13.6081 7.45525 14.6415 7.45525C15.6847 7.45525 16.5114 8.46248 16.5016 9.67956C16.5016 10.9071 15.6847 11.9039 14.6415 11.9039Z" fill="#A0A0A0"/>
</svg>
